<svg id="visual" viewBox="0 0 3840 2160" width="3840" height="2160" xmlns="http://www.w3.org/2000/svg" xmlns:xlink="http://www.w3.org/1999/xlink" version="1.1"><path d="M0 239L320 224.5C640 210 1280 181 1920 184.5C2560 188 3200 224 3520 242L3840 260L3840 0L3520 0C3200 0 2560 0 1920 0C1280 0 640 0 320 0L0 0Z" fill="#c2c2bb"></path><path d="M0 606L320 613.2C640 620.3 1280 634.7 1920 656.2C2560 677.7 3200 706.3 3520 720.7L3840 735L3840 258L3520 240C3200 222 2560 186 1920 182.5C1280 179 640 208 320 222.5L0 237Z" fill="#bbbbb3"></path><path d="M0 865L320 868.7C640 872.3 1280 879.7 1920 915.7C2560 951.7 3200 1016.3 3520 1048.7L3840 1081L3840 733L3520 718.7C3200 704.3 2560 675.7 1920 654.2C1280 632.7 640 618.3 320 611.2L0 604Z" fill="#b3b3aa"></path><path d="M0 1016L320 1023.2C640 1030.3 1280 1044.7 1920 1080.7C2560 1116.7 3200 1174.3 3520 1203.2L3840 1232L3840 1079L3520 1046.7C3200 1014.3 2560 949.7 1920 913.7C1280 877.7 640 870.3 320 866.7L0 863Z" fill="#acaca2"></path><path d="M0 1146L320 1156.8C640 1167.7 1280 1189.3 1920 1232.5C2560 1275.7 3200 1340.3 3520 1372.7L3840 1405L3840 1230L3520 1201.2C3200 1172.3 2560 1114.7 1920 1078.7C1280 1042.7 640 1028.3 320 1021.2L0 1014Z" fill="#a1a198"></path><path d="M0 1405L320 1419.3C640 1433.7 1280 1462.3 1920 1498.3C2560 1534.3 3200 1577.7 3520 1599.3L3840 1621L3840 1403L3520 1370.7C3200 1338.3 2560 1273.7 1920 1230.5C1280 1187.3 640 1165.7 320 1154.8L0 1144Z" fill="#94948b"></path><path d="M0 1599L320 1613.5C640 1628 1280 1657 1920 1678.7C2560 1700.3 3200 1714.7 3520 1721.8L3840 1729L3840 1619L3520 1597.3C3200 1575.7 2560 1532.3 1920 1496.3C1280 1460.3 640 1431.7 320 1417.3L0 1403Z" fill="#88887f"></path><path d="M0 2161L320 2161C640 2161 1280 2161 1920 2161C2560 2161 3200 2161 3520 2161L3840 2161L3840 1727L3520 1719.8C3200 1712.7 2560 1698.3 1920 1676.7C1280 1655 640 1626 320 1611.5L0 1597Z" fill="#7b7b73"></path></svg>